<svg width="1919" height="282" viewBox="0 0 1919 282" fill="none" xmlns="http://www.w3.org/2000/svg">
<path d="M1918.69 544.209V112.067C1911.1 110.642 1903.27 109.867 1895.26 109.867C1833.72 109.867 1782.45 153.783 1770.99 212.001C1747.9 187.628 1715.27 172.4 1679.06 172.4C1653.52 172.4 1629.76 179.991 1609.86 193.007C1590.1 107.617 1513.67 43.9506 1422.33 43.9506C1358.29 43.9506 1301.6 75.2577 1266.59 123.382C1245.48 52.0557 1179.54 0.0037495 1101.42 0.0037495C1008.23 0.0037495 932.382 74.0444 929.285 166.534C908.382 151.303 882.66 142.295 854.819 142.295C805.73 142.295 763.194 170.254 742.164 211.11C706.842 169.049 653.908 142.295 594.709 142.295C570.349 142.295 547.067 146.868 525.615 155.127C527.698 146.004 528.838 136.521 528.838 126.764C528.838 56.7552 472.121 0 402.159 0C348.799 0 303.175 33.031 284.516 79.7614C249.528 31.453 192.719 0 128.539 0C79.1319 0 34.0869 18.6407 0 49.2529V544.209H1918.69Z" fill="#3395FF"/>
</svg>
