<svg width="1920" height="394" viewBox="0 0 1920 394" fill="none" xmlns="http://www.w3.org/2000/svg">
<path d="M1920 521.739V82.2189C1839.39 121.089 1781.31 199.245 1770.69 291.859C1738.77 251.718 1689.54 225.951 1634.25 225.951C1578.35 225.951 1528.63 252.301 1496.75 293.213C1466.48 229.451 1401.5 185.347 1326.18 185.347C1326.05 185.347 1325.92 185.358 1325.78 185.358C1326.02 181.636 1326.18 177.895 1326.18 174.115C1326.18 77.952 1248.18 0 1151.96 0C1056.99 0 979.816 75.9643 977.834 170.408C928.969 115.871 858.004 81.5244 778.987 81.5244C675.401 81.5244 585.665 140.548 541.438 226.742C518.128 205.154 486.944 191.939 452.657 191.939C422.429 191.939 394.623 202.226 372.485 219.447C344.23 161.406 284.668 121.396 215.741 121.396C181.639 121.396 149.855 131.223 122.99 148.149C112.9 80.734 64.1387 25.9853 0 7.10258V521.739H1920Z" fill="#007AFF"/>
</svg>
