<svg width="1920" height="175" viewBox="0 0 1920 175" fill="none" xmlns="http://www.w3.org/2000/svg">
<path d="M1920 483.913V53.0144C1838.49 62.6883 1767.78 107.518 1723.42 171.915C1699.87 159.93 1673.24 153.131 1645 153.131C1579.41 153.131 1522.35 189.593 1492.96 243.348C1471.57 221.728 1441.9 208.319 1409.08 208.319C1395.32 208.319 1382.12 210.699 1369.84 215.029C1373.17 201.612 1374.97 187.593 1374.97 173.143C1374.97 77.5177 1297.43 0 1201.8 0C1123.98 0 1058.16 51.3177 1036.32 121.952C1015.75 104.474 989.111 93.9095 960 93.9095C913.312 93.9095 872.962 121.031 853.838 160.372C822.139 119.929 772.871 93.9095 717.494 93.9095C627.419 93.9095 553.432 162.675 545.124 250.557C493.978 190.641 417.948 152.602 332.988 152.602C271.947 152.602 215.526 172.268 169.606 205.532C153.376 126.739 83.6088 67.4945 0 67.4945V483.913H1920Z" fill="#84BAF5"/>
</svg>
